<?xml version="1.0" encoding="UTF-8"?>
<svg id="Layer_2" data-name="Layer 2" xmlns="http://www.w3.org/2000/svg" xmlns:xlink="http://www.w3.org/1999/xlink" viewBox="0 0 638.18 172.29">
  <defs>
    <style>
      .cls-1 {
        fill: url(#linear-gradient);
      }

      .cls-1, .cls-2, .cls-3, .cls-4 {
        stroke-width: 0px;
      }

      .cls-2 {
        fill: orange;
      }

      .cls-3 {
        fill: #fff;
      }

      .cls-4 {
        fill: url(#linear-gradient-2);
      }
    </style>
    <linearGradient id="linear-gradient" x1="261.91" y1="32.7" x2="197.61" y2="185.98" gradientUnits="userSpaceOnUse">
      <stop offset="0" stop-color="orange"/>
      <stop offset=".37" stop-color="#fda400"/>
      <stop offset=".51" stop-color="#f6a002"/>
      <stop offset=".6" stop-color="#ea9a05"/>
      <stop offset=".68" stop-color="#d99109"/>
      <stop offset=".75" stop-color="#c3860f"/>
      <stop offset=".8" stop-color="#a87817"/>
      <stop offset=".86" stop-color="#87671f"/>
      <stop offset=".91" stop-color="#625429"/>
      <stop offset=".95" stop-color="#373e35"/>
      <stop offset=".99" stop-color="#092641"/>
      <stop offset="1" stop-color="#024"/>
    </linearGradient>
    <linearGradient id="linear-gradient-2" x1="214.45" y1="184.93" x2="163.14" y2="77.76" gradientUnits="userSpaceOnUse">
      <stop offset="0" stop-color="orange"/>
      <stop offset=".37" stop-color="#ffa501"/>
      <stop offset=".51" stop-color="#ffa808"/>
      <stop offset=".6" stop-color="#ffac14"/>
      <stop offset=".68" stop-color="#ffb225"/>
      <stop offset=".75" stop-color="#ffb93b"/>
      <stop offset=".8" stop-color="#ffc356"/>
      <stop offset=".86" stop-color="#ffcf77"/>
      <stop offset=".91" stop-color="#ffdc9c"/>
      <stop offset=".95" stop-color="#ffebc7"/>
      <stop offset=".99" stop-color="#fffbf5"/>
      <stop offset="1" stop-color="#fff"/>
    </linearGradient>
  </defs>
  <g id="Layer_1-2" data-name="Layer 1">
    <g>
      <polygon class="cls-1" points="290.95 10.53 285.53 23.76 285.47 23.76 275.55 48.07 224.61 172.29 223.78 172.29 204 123.48 241.27 31.23 290.95 10.53"/>
      <path class="cls-4" d="m223.78,172.29h-40.27l-.06-.14-22.51-53.32-15.3-36.24s-1.65-4.58-3.77-9.96l36.45-15.19c12.56,28.77,25.68,66.03,25.68,66.03l19.79,48.82Z"/>
      <path class="cls-3" d="m141.86,72.64h0c-2.26-5.73-5.06-12.37-6.96-15.36-4.56-7.16-11.8-10.97-18.35-13.97-6.54-2.99-13.84-4.5-21.89-4.5-7.09,0-13.57,1.11-19.4,3.32-5.84,2.2-10.81,5.4-14.9,9.58-4.11,4.18-7.31,9.18-9.59,15.03-2.29,5.83-3.43,12.3-3.43,19.4s1.14,13.33,3.43,19.16c2.28,5.84,5.48,10.85,9.59,15.03,4.09,4.19,9.02,7.42,14.79,9.7,5.76,2.29,12.1,3.44,19.04,3.44,5.8,0,11.49-.8,17.07-2.4l17.36,41.21h-37.26c-1.05,0-2.08-.01-3.11-.04-12.05-.3-23.17-2.37-33.34-6.23-11.04-4.18-20.67-10.09-28.87-17.75-8.2-7.65-14.59-16.75-19.17-27.34C2.28,110.37,0,98.77,0,86.15s2.28-24.21,6.86-34.79c4.58-10.57,11.01-19.69,19.29-27.33,8.28-7.66,18.03-13.57,29.23-17.76C66.58,2.09,78.96,0,92.54,0c15.46,0,29.35,2.61,41.65,7.81,8.05,3.4,15.19,7.79,21.42,13.17.09.08.17.15.26.24,0,0,7.05,6.46,8.8,9.11,3.91,5.92,8.73,15.87,13.64,27.13l-36.45,15.19Z"/>
      <path class="cls-3" d="m170.12,172.29h-41.51l-17.35-41.21s.04,0,.05-.02l-16.41-38.87,35.22-14.87.07.17,2.16,5.1,28.59,67.73v.15l9.18,21.82Z"/>
    </g>
    <g>
      <path class="cls-2" d="m342.14,79.86V13.86h-22.74V2.22h59.78v11.65h-22.63v66h-14.42Z"/>
      <path class="cls-2" d="m400.15,81.19c-5.62,0-10.58-1.2-14.86-3.6-4.29-2.4-7.65-5.73-10.09-9.98-2.44-4.25-3.66-9.19-3.66-14.81s1.2-10.76,3.6-15.2c2.4-4.44,5.75-7.89,10.04-10.37,4.29-2.48,9.28-3.72,14.97-3.72s10.28,1.18,14.42,3.55c4.14,2.37,7.38,5.58,9.71,9.65,2.33,4.07,3.49,8.69,3.49,13.86v2.44c0,.89-.07,1.81-.22,2.77h-45.59v-8.87h31.28c-.22-3.55-1.55-6.4-3.99-8.54-2.44-2.14-5.44-3.22-8.98-3.22-2.66,0-5.1.59-7.32,1.77-2.22,1.18-3.98,2.94-5.27,5.27-1.29,2.33-1.94,5.31-1.94,8.93v3.11c0,3.11.63,5.81,1.89,8.1,1.26,2.29,2.96,4.05,5.1,5.27,2.14,1.22,4.58,1.83,7.32,1.83s5.18-.63,7.1-1.89c1.92-1.26,3.4-2.92,4.44-4.99h14.64c-1.04,3.48-2.76,6.64-5.16,9.48-2.4,2.85-5.38,5.08-8.93,6.71-3.55,1.63-7.54,2.44-11.98,2.44Z"/>
      <path class="cls-2" d="m461.93,81.19c-5.62,0-10.59-1.24-14.92-3.72s-7.73-5.88-10.2-10.2c-2.48-4.33-3.72-9.3-3.72-14.92s1.24-10.59,3.72-14.92c2.48-4.33,5.88-7.73,10.2-10.2,4.33-2.48,9.3-3.72,14.92-3.72,7.02,0,12.94,1.83,17.75,5.49,4.81,3.66,7.88,8.71,9.21,15.14h-15.2c-.67-2.51-2.07-4.53-4.21-6.04-2.15-1.51-4.7-2.27-7.65-2.27-2.51,0-4.84.67-6.99,2-2.15,1.33-3.85,3.22-5.1,5.66-1.26,2.44-1.89,5.4-1.89,8.87s.63,6.36,1.89,8.87c1.26,2.51,2.96,4.42,5.1,5.71,2.14,1.29,4.47,1.94,6.99,1.94,2.96,0,5.51-.72,7.65-2.16,2.14-1.44,3.55-3.49,4.21-6.16h15.2c-1.26,6.21-4.31,11.2-9.15,14.97-4.84,3.77-10.78,5.66-17.8,5.66Z"/>
      <path class="cls-2" d="m495.98,79.86V0h14.42v33.16c1.77-2.96,4.27-5.3,7.49-7.04,3.22-1.74,6.82-2.61,10.81-2.61,6.8,0,12.07,2.16,15.81,6.49,3.73,4.33,5.6,10.63,5.6,18.91v30.95h-14.31v-29.62c0-4.73-.94-8.34-2.83-10.81-1.89-2.48-4.83-3.72-8.82-3.72s-7.28,1.39-9.87,4.16c-2.59,2.77-3.88,6.64-3.88,11.59v28.39h-14.42Z"/>
    </g>
    <g>
      <path class="cls-2" d="m337.04,170.96v-77.64h17.3l27.62,65.77-6.1.78,27.51-66.55h17.19v77.64h-14.42v-66.11l4.88,3.33-26.4,62.78h-11.54l-26.51-62.78,4.88-3.33v66.11h-14.42Z"/>
      <path class="cls-2" d="m457.38,172.29c-5.62,0-10.58-1.2-14.86-3.6-4.29-2.4-7.65-5.73-10.09-9.98-2.44-4.25-3.66-9.19-3.66-14.81s1.2-10.76,3.6-15.2c2.4-4.44,5.75-7.89,10.04-10.37,4.29-2.48,9.28-3.72,14.97-3.72s10.28,1.18,14.42,3.55c4.14,2.37,7.38,5.58,9.71,9.65,2.33,4.07,3.49,8.69,3.49,13.86v2.44c0,.89-.07,1.81-.22,2.77h-45.59v-8.87h31.28c-.22-3.55-1.55-6.4-3.99-8.54-2.44-2.14-5.44-3.22-8.98-3.22-2.66,0-5.1.59-7.32,1.77-2.22,1.18-3.98,2.94-5.27,5.27-1.29,2.33-1.94,5.31-1.94,8.93v3.11c0,3.11.63,5.81,1.89,8.1,1.26,2.29,2.96,4.05,5.1,5.27,2.14,1.22,4.58,1.83,7.32,1.83s5.18-.63,7.1-1.89c1.92-1.26,3.4-2.92,4.44-4.99h14.64c-1.04,3.48-2.76,6.64-5.16,9.48-2.4,2.85-5.38,5.08-8.93,6.71-3.55,1.63-7.54,2.44-11.98,2.44Z"/>
      <path class="cls-2" d="m517.5,172.29c-5.18,0-9.82-1.26-13.92-3.77-4.1-2.51-7.34-5.97-9.71-10.37-2.37-4.4-3.55-9.33-3.55-14.81s1.18-10.48,3.55-14.81c2.37-4.33,5.6-7.73,9.71-10.2,4.1-2.48,8.74-3.72,13.92-3.72,4.14,0,7.75.78,10.81,2.33,3.07,1.55,5.53,3.7,7.38,6.43v-32.28h14.42v79.86h-14.42v-7.88c-1.7,2.44-4.01,4.59-6.93,6.43-2.92,1.85-6.67,2.77-11.26,2.77Zm3.11-12.53c3.03,0,5.71-.7,8.04-2.11,2.33-1.4,4.14-3.34,5.43-5.82,1.29-2.48,1.94-5.27,1.94-8.38s-.65-5.99-1.94-8.43c-1.29-2.44-3.11-4.36-5.43-5.77-2.33-1.4-5.01-2.11-8.04-2.11s-5.62.7-7.99,2.11c-2.37,1.41-4.21,3.31-5.55,5.71-1.33,2.4-2,5.2-2,8.37s.67,6.01,2,8.49c1.33,2.48,3.18,4.42,5.55,5.82,2.37,1.41,5.03,2.11,7.99,2.11Z"/>
      <path class="cls-2" d="m559.32,170.96v-55.01h14.42v55.01h-14.42Zm.33-64.11v-13.98h13.98v13.98h-13.98Z"/>
      <path class="cls-2" d="m601.68,172.29c-4.14,0-7.71-.74-10.7-2.22-3-1.48-5.27-3.47-6.82-5.99-1.55-2.51-2.33-5.29-2.33-8.32,0-5.77,2.07-10.22,6.21-13.37,4.14-3.14,9.58-4.71,16.3-4.71,3.18,0,5.92.22,8.21.67,2.29.44,4.18.92,5.66,1.44v-2.66c0-3.84-1.09-6.65-3.27-8.43-2.18-1.77-5.01-2.66-8.49-2.66-2.44,0-4.62.5-6.54,1.5-1.92,1-3.14,2.75-3.66,5.27h-13.64c.44-3.92,1.77-7.23,3.99-9.93,2.22-2.7,5.05-4.75,8.49-6.16,3.44-1.4,7.23-2.11,11.37-2.11,8.21,0,14.62,1.96,19.24,5.88,4.62,3.92,6.93,9.47,6.93,16.64v12.42c0,2.81.17,4.88.5,6.21.33,1.33.87,2.18,1.61,2.55.74.37,1.74.55,2.99.55h.44v12.09h-3.11c-3.92,0-7.17-.52-9.76-1.55-2.59-1.04-4.47-3.07-5.66-6.1-1.85,2.59-4.29,4.73-7.32,6.43-3.03,1.7-6.58,2.55-10.65,2.55Zm3.22-10.98c2.37,0,4.38-.54,6.04-1.61,1.66-1.07,3.05-2.55,4.16-4.44,1.11-1.89,1.89-3.94,2.33-6.16-1.55-.44-3.35-.87-5.38-1.28-2.03-.41-4.09-.61-6.16-.61-2.88,0-5.2.65-6.93,1.94-1.74,1.29-2.61,3.09-2.61,5.38,0,2,.76,3.62,2.27,4.88,1.51,1.26,3.6,1.89,6.27,1.89Z"/>
    </g>
    <g>
      <polygon class="cls-1" points="290.95 10.53 285.53 23.76 285.47 23.76 275.55 48.07 224.61 172.29 223.78 172.29 204 123.48 241.27 31.23 290.95 10.53"/>
      <path class="cls-4" d="m223.78,172.29h-40.27l-.06-.14-22.51-53.32-15.3-36.24s-1.65-4.58-3.77-9.96l36.45-15.19c12.56,28.77,25.68,66.03,25.68,66.03l19.79,48.82Z"/>
      <path class="cls-3" d="m141.86,72.64h0c-2.26-5.73-5.06-12.37-6.96-15.36-4.56-7.16-11.8-10.97-18.35-13.97-6.54-2.99-13.84-4.5-21.89-4.5-7.09,0-13.57,1.11-19.4,3.32-5.84,2.2-10.81,5.4-14.9,9.58-4.11,4.18-7.31,9.18-9.59,15.03-2.29,5.83-3.43,12.3-3.43,19.4s1.14,13.33,3.43,19.16c2.28,5.84,5.48,10.85,9.59,15.03,4.09,4.19,9.02,7.42,14.79,9.7,5.76,2.29,12.1,3.44,19.04,3.44,5.8,0,11.49-.8,17.07-2.4l17.36,41.21h-37.26c-1.05,0-2.08-.01-3.11-.04-12.05-.3-23.17-2.37-33.34-6.23-11.04-4.18-20.67-10.09-28.87-17.75-8.2-7.65-14.59-16.75-19.17-27.34C2.28,110.37,0,98.77,0,86.15s2.28-24.21,6.86-34.79c4.58-10.57,11.01-19.69,19.29-27.33,8.28-7.66,18.03-13.57,29.23-17.76C66.58,2.09,78.96,0,92.54,0c15.46,0,29.35,2.61,41.65,7.81,8.05,3.4,15.19,7.79,21.42,13.17.09.08.17.15.26.24,0,0,7.05,6.46,8.8,9.11,3.91,5.92,8.73,15.87,13.64,27.13l-36.45,15.19Z"/>
      <path class="cls-3" d="m170.12,172.29h-41.51l-17.35-41.21s.04,0,.05-.02l-16.41-38.87,35.22-14.87.07.17,2.16,5.1,28.59,67.73v.15l9.18,21.82Z"/>
    </g>
  </g>
</svg>